<svg version="1" xmlns="http://www.w3.org/2000/svg" width="533.333" height="533.333" viewBox="0 0 400.000000 400.000000"><path d="M69.5 67.7c-14.5 1.8-26.8 10-33.9 22.4-5.1 8.9-5.6 14.3-5.6 63.4 0 24.7.4 47.6 1 50.9 2.9 17.8 17 32.2 34.9 35.6 3.3.6 29.5 1 67.7 1H196v14.5c0 13.2.2 14.5 1.9 15.5 2.5 1.3 7.2 1.3 10.5 0l2.6-1v-29h61.4c37.5 0 63.4-.4 66.7-1 17.9-3.4 32-17.8 34.9-35.6.6-3.3 1-26.2 1-50.9 0-49.6-.5-54.4-5.9-63.8-5.2-9.1-14.6-16.9-24.7-20.4-4.5-1.6-15.4-1.8-138.4-1.9-73.4-.1-134.8 0-136.5.3zm266 11.8c10.6 3.2 20.3 12.4 24.7 23.4 2.3 5.5 2.3 6.1 2.3 51.1 0 45.4 0 45.5-2.3 51.3-4.4 10.9-12 18.5-22.9 22.9l-5.8 2.3h-258l-5.8-2.3c-10.9-4.4-18.5-12-22.9-22.9-2.3-5.8-2.3-5.9-2.3-51.3 0-45 0-45.6 2.3-51.1 4.3-10.8 13.3-19.5 23.7-23 4.6-1.6 14.6-1.8 133.5-1.8 111.7-.1 129.2.1 133.5 1.4zM60.1 307.6c-4 3.4-5.1 7.7-5.1 20.9s1.1 17.5 5.1 20.9l3.1 2.6h115.3c85.1 0 116.1-.3 117.9-1.2 5-2.2 6-5.3 6.4-18.6.5-16.3-.2-20.4-3.9-24.2l-3.1-3H63.2l-3.1 2.6zM321.8 307.1c-1.6.9-1.8 3-1.8 21.7 0 14.9.3 21.1 1.2 22 .7.7 4.1 1.2 8.5 1.2 6.1 0 7.4-.3 8.3-1.9.6-1.2 1-9.8 1-21 0-22.8-.1-23.1-9.7-23.1-3.2 0-6.6.5-7.5 1.1z"/></svg>