<svg height='100px' width='100px'  fill="#000000" xmlns="http://www.w3.org/2000/svg" data-name="Layer 2" viewBox="0 0 120 120" x="0px" y="0px"><title>GL_001_network_27</title><path d="M60.06,108.5A12.18,12.18,0,1,1,72.24,96.32,12.19,12.19,0,0,1,60.06,108.5Z"></path><circle cx="60.06" cy="96.32" r="11.18"></circle><path d="M60.06,108.5A12.18,12.18,0,1,1,72.24,96.32,12.19,12.19,0,0,1,60.06,108.5Z"></path><circle cx="60.06" cy="96.32" r="11.18"></circle><path d="M80.79,66.42a36.36,36.36,0,0,0-41.58.09l-.82.57,9.16,13.08.82-.57a20.4,20.4,0,0,1,23.27-.08l.82.56L81.61,67ZM72.21,78.68a21.41,21.41,0,0,0-24.41.09l-8-11.44a35.36,35.36,0,0,1,40.43-.09Z"></path><path d="M108.57,26.74a84.83,84.83,0,0,0-97.15.09l-.82.57L19.78,40.5l.82-.57a68.79,68.79,0,0,1,78.81-.09l.82.57,9.17-13.09ZM100,39a69.79,69.79,0,0,0-80,.09L12,27.65a83.83,83.83,0,0,1,96-.09Z"></path><path d="M94.68,46.58a60.55,60.55,0,0,0-69.35.09l-.82.57,9.16,13.08.82-.57a44.59,44.59,0,0,1,51-.09l.82.57L95.5,47.16ZM86.09,58.85a45.59,45.59,0,0,0-52.18.09l-8-11.44A59.55,59.55,0,0,1,94.1,47.4Z"></path></svg>