<svg height='100px' width='100px'  fill="#000000" xmlns="http://www.w3.org/2000/svg" data-name="Layer 2" viewBox="0 0 120 120" x="0px" y="0px"><title>GL_001_network_24</title><path d="M60.06,108.5A12.18,12.18,0,1,1,72.24,96.32,12.19,12.19,0,0,1,60.06,108.5Z"></path><circle cx="60.06" cy="96.32" r="11.18"></circle><path d="M60.06,108.5A12.18,12.18,0,1,1,72.24,96.32,12.19,12.19,0,0,1,60.06,108.5Z"></path><circle cx="60.06" cy="96.32" r="11.18"></circle><path d="M38.39,67.08l.82-.57a36.36,36.36,0,0,1,41.58-.09l.83.57L72.46,80.07l-.82-.56a20.4,20.4,0,0,0-23.27.08l-.82.57Z"></path><path d="M47.79,78.77a21.41,21.41,0,0,1,24.41-.09l8-11.44a35.36,35.36,0,0,0-40.43.09Z"></path><path d="M10.61,27.4l.82-.57a84.83,84.83,0,0,1,97.15-.09l.82.57-9.17,13.09-.82-.57a68.79,68.79,0,0,0-78.81.09l-.82.57Z"></path><path d="M20,39.1A69.79,69.79,0,0,1,100,39l8-11.45a83.83,83.83,0,0,0-96,.09Z"></path><path d="M24.5,47.25l.82-.57a60.55,60.55,0,0,1,69.35-.09l.82.57L86.34,60.24l-.82-.57a44.59,44.59,0,0,0-51,.09l-.82.57Z"></path><path d="M33.91,58.93a45.59,45.59,0,0,1,52.18-.09l8-11.44a59.55,59.55,0,0,0-68.21.09Z"></path></svg>