<svg width="157" height="127" viewBox="0 0 157 127" fill="none" xmlns="http://www.w3.org/2000/svg">
<rect width="157" height="127" rx="5" fill="#C7C7C7"/>
<rect y="36" width="157" height="91" rx="5" fill="#EFEFEF"/>
<rect x="9" y="36" width="83" height="36" fill="white"/>
<rect x="89" y="36" width="68" height="91" fill="#FFFAFA"/>
<path d="M34.8359 62H32.7627L24.8887 49.9473V62H22.8154V46.3594H24.8887L32.7842 58.4658V46.3594H34.8359V62ZM43.0107 62.2148C41.4352 62.2148 40.1533 61.6992 39.165 60.668C38.1768 59.6296 37.6826 58.2438 37.6826 56.5107V56.1455C37.6826 54.9925 37.901 53.9648 38.3379 53.0625C38.7819 52.153 39.3978 51.444 40.1855 50.9355C40.9805 50.4199 41.8398 50.1621 42.7637 50.1621C44.2747 50.1621 45.4492 50.6598 46.2871 51.6553C47.125 52.6507 47.5439 54.0758 47.5439 55.9307V56.7578H39.6699C39.6986 57.9036 40.0316 58.8311 40.6689 59.54C41.3135 60.2419 42.1299 60.5928 43.1182 60.5928C43.82 60.5928 44.4144 60.4495 44.9014 60.1631C45.3883 59.8766 45.8145 59.4971 46.1797 59.0244L47.3936 59.9697C46.4196 61.4665 44.9587 62.2148 43.0107 62.2148ZM42.7637 51.7949C41.9616 51.7949 41.2884 52.0885 40.7441 52.6758C40.1999 53.2559 39.8633 54.0723 39.7344 55.125H45.5566V54.9746C45.4993 53.9648 45.2272 53.1842 44.7402 52.6328C44.2533 52.0742 43.5944 51.7949 42.7637 51.7949ZM60.1445 59.2607L62.3789 50.377H64.3662L60.9824 62H59.3711L56.5459 53.1914L53.7959 62H52.1846L48.8115 50.377H50.7881L53.0762 59.0781L55.7832 50.377H57.3838L60.1445 59.2607Z" fill="black"/>
<path d="M20.5664 19.7695H13.6992V27H10.7344V9.9375H21.5742V12.3281H13.6992V17.4023H20.5664V19.7695ZM26.6836 27H23.8359V14.3203H26.6836V27ZM23.6602 11.0273C23.6602 10.5898 23.7969 10.2266 24.0703 9.9375C24.3516 9.64844 24.75 9.50391 25.2656 9.50391C25.7812 9.50391 26.1797 9.64844 26.4609 9.9375C26.7422 10.2266 26.8828 10.5898 26.8828 11.0273C26.8828 11.457 26.7422 11.8164 26.4609 12.1055C26.1797 12.3867 25.7812 12.5273 25.2656 12.5273C24.75 12.5273 24.3516 12.3867 24.0703 12.1055C23.7969 11.8164 23.6602 11.457 23.6602 11.0273ZM32.8242 27H29.9766V9H32.8242V27ZM41.5195 27.2344C39.7148 27.2344 38.25 26.668 37.125 25.5352C36.0078 24.3945 35.4492 22.8789 35.4492 20.9883V20.6367C35.4492 19.3711 35.6914 18.2422 36.1758 17.25C36.668 16.25 37.3555 15.4727 38.2383 14.918C39.1211 14.3633 40.1055 14.0859 41.1914 14.0859C42.918 14.0859 44.25 14.6367 45.1875 15.7383C46.1328 16.8398 46.6055 18.3984 46.6055 20.4141V21.5625H38.3203C38.4062 22.6094 38.7539 23.4375 39.3633 24.0469C39.9805 24.6562 40.7539 24.9609 41.6836 24.9609C42.9883 24.9609 44.0508 24.4336 44.8711 23.3789L46.4062 24.8438C45.8984 25.6016 45.2188 26.1914 44.3672 26.6133C43.5234 27.0273 42.5742 27.2344 41.5195 27.2344ZM41.1797 16.3711C40.3984 16.3711 39.7656 16.6445 39.2812 17.1914C38.8047 17.7383 38.5 18.5 38.3672 19.4766H43.793V19.2656C43.7305 18.3125 43.4766 17.5938 43.0312 17.1094C42.5859 16.6172 41.9688 16.3711 41.1797 16.3711Z" fill="black"/>
<path d="M103.815 65V49.3594H108.23C109.591 49.3594 110.794 49.6602 111.84 50.2617C112.885 50.8633 113.691 51.7191 114.257 52.8291C114.83 53.9391 115.12 55.2139 115.127 56.6533V57.6523C115.127 59.1276 114.84 60.4202 114.268 61.5303C113.702 62.6403 112.889 63.4925 111.829 64.0869C110.776 64.6813 109.548 64.9857 108.145 65H103.815ZM105.878 51.0566V63.3135H108.048C109.638 63.3135 110.873 62.8193 111.754 61.8311C112.642 60.8428 113.086 59.4355 113.086 57.6094V56.6963C113.086 54.9202 112.667 53.5417 111.829 52.5605C110.998 51.5723 109.817 51.071 108.284 51.0566H105.878ZM117.415 59.0811C117.415 57.9424 117.637 56.9183 118.081 56.0088C118.532 55.0993 119.155 54.3975 119.95 53.9033C120.752 53.4092 121.665 53.1621 122.689 53.1621C124.272 53.1621 125.55 53.71 126.524 54.8057C127.506 55.9014 127.996 57.3587 127.996 59.1777V59.3174C127.996 60.4489 127.778 61.4658 127.341 62.3682C126.911 63.2633 126.292 63.9616 125.482 64.4629C124.68 64.9642 123.757 65.2148 122.711 65.2148C121.135 65.2148 119.857 64.667 118.876 63.5713C117.902 62.4756 117.415 61.0254 117.415 59.2207V59.0811ZM119.413 59.3174C119.413 60.6064 119.71 61.6413 120.305 62.4219C120.906 63.2025 121.708 63.5928 122.711 63.5928C123.721 63.5928 124.523 63.1989 125.117 62.4111C125.712 61.6162 126.009 60.5062 126.009 59.0811C126.009 57.8063 125.704 56.7751 125.096 55.9873C124.494 55.1924 123.692 54.7949 122.689 54.7949C121.708 54.7949 120.917 55.1852 120.315 55.9658C119.714 56.7464 119.413 57.8636 119.413 59.3174ZM135.15 63.5928C135.859 63.5928 136.479 63.3779 137.009 62.9482C137.539 62.5186 137.832 61.9814 137.89 61.3369H139.77C139.734 62.0029 139.505 62.6367 139.082 63.2383C138.66 63.8398 138.094 64.3197 137.385 64.6777C136.683 65.0358 135.938 65.2148 135.15 65.2148C133.568 65.2148 132.307 64.6885 131.369 63.6357C130.438 62.5758 129.973 61.1292 129.973 59.2959V58.9629C129.973 57.8314 130.18 56.8252 130.596 55.9443C131.011 55.0635 131.605 54.3796 132.379 53.8926C133.16 53.4056 134.08 53.1621 135.14 53.1621C136.443 53.1621 137.524 53.5524 138.384 54.333C139.25 55.1136 139.712 56.127 139.77 57.373H137.89C137.832 56.6211 137.546 56.0052 137.03 55.5254C136.522 55.0384 135.892 54.7949 135.14 54.7949C134.13 54.7949 133.346 55.1602 132.787 55.8906C132.236 56.6139 131.96 57.6631 131.96 59.0381V59.4141C131.96 60.7533 132.236 61.7845 132.787 62.5078C133.339 63.2311 134.126 63.5928 135.15 63.5928ZM149.18 63.8506C148.406 64.7601 147.271 65.2148 145.774 65.2148C144.535 65.2148 143.59 64.8568 142.938 64.1406C142.294 63.4173 141.968 62.3503 141.961 60.9395V53.377H143.948V60.8857C143.948 62.6475 144.664 63.5283 146.097 63.5283C147.615 63.5283 148.625 62.9626 149.126 61.8311V53.377H151.113V65H149.223L149.18 63.8506Z" fill="black"/>
<path d="M112.441 102.093H105.878V109H103.815V93.3594H113.505V95.0566H105.878V100.406H112.441V102.093ZM114.901 103.081C114.901 101.942 115.123 100.918 115.567 100.009C116.019 99.0993 116.642 98.3975 117.437 97.9033C118.239 97.4092 119.152 97.1621 120.176 97.1621C121.758 97.1621 123.037 97.71 124.011 98.8057C124.992 99.9014 125.482 101.359 125.482 103.178V103.317C125.482 104.449 125.264 105.466 124.827 106.368C124.397 107.263 123.778 107.962 122.969 108.463C122.167 108.964 121.243 109.215 120.197 109.215C118.622 109.215 117.343 108.667 116.362 107.571C115.388 106.476 114.901 105.025 114.901 103.221V103.081ZM116.899 103.317C116.899 104.606 117.197 105.641 117.791 106.422C118.393 107.202 119.195 107.593 120.197 107.593C121.207 107.593 122.009 107.199 122.604 106.411C123.198 105.616 123.495 104.506 123.495 103.081C123.495 101.806 123.191 100.775 122.582 99.9873C121.98 99.1924 121.178 98.7949 120.176 98.7949C119.195 98.7949 118.403 99.1852 117.802 99.9658C117.2 100.746 116.899 101.864 116.899 103.317ZM130.134 109H128.146V92.5H130.134V109ZM132.841 103.092C132.841 101.309 133.263 99.8763 134.108 98.7949C134.953 97.7064 136.06 97.1621 137.428 97.1621C138.788 97.1621 139.866 97.6276 140.661 98.5586V92.5H142.648V109H140.822L140.726 107.754C139.931 108.728 138.824 109.215 137.406 109.215C136.06 109.215 134.961 108.663 134.108 107.561C133.263 106.458 132.841 105.018 132.841 103.242V103.092ZM134.828 103.317C134.828 104.635 135.1 105.666 135.645 106.411C136.189 107.156 136.941 107.528 137.9 107.528C139.161 107.528 140.081 106.963 140.661 105.831V100.492C140.067 99.3965 139.154 98.8486 137.922 98.8486C136.948 98.8486 136.189 99.2246 135.645 99.9766C135.1 100.729 134.828 101.842 134.828 103.317ZM150.565 109.215C148.99 109.215 147.708 108.699 146.72 107.668C145.731 106.63 145.237 105.244 145.237 103.511V103.146C145.237 101.993 145.456 100.965 145.893 100.062C146.337 99.153 146.952 98.444 147.74 97.9355C148.535 97.4199 149.395 97.1621 150.318 97.1621C151.829 97.1621 153.004 97.6598 153.842 98.6553C154.68 99.6507 155.099 101.076 155.099 102.931V103.758H147.225C147.253 104.904 147.586 105.831 148.224 106.54C148.868 107.242 149.685 107.593 150.673 107.593C151.375 107.593 151.969 107.45 152.456 107.163C152.943 106.877 153.369 106.497 153.734 106.024L154.948 106.97C153.974 108.466 152.513 109.215 150.565 109.215ZM150.318 98.7949C149.516 98.7949 148.843 99.0885 148.299 99.6758C147.755 100.256 147.418 101.072 147.289 102.125H153.111V101.975C153.054 100.965 152.782 100.184 152.295 99.6328C151.808 99.0742 151.149 98.7949 150.318 98.7949Z" fill="black"/>
</svg>
